<svg width="16" height="16" viewBox="0 0 16 16" fill="none" xmlns="http://www.w3.org/2000/svg">
<g id="world">
<path id="Shape" fill-rule="evenodd" clip-rule="evenodd" d="M8.33741 0.165901C8.31608 0.163493 8.29478 0.160799 8.27346 0.158103C8.20778 0.149798 8.14199 0.141479 8.07523 0.141479C8.06139 0.141479 8.04771 0.143335 8.03405 0.145186C8.02224 0.146788 8.01045 0.148387 7.9986 0.148778C7.97722 0.148387 7.95595 0.146784 7.93467 0.14518C7.91014 0.14333 7.88558 0.141479 7.86078 0.141479C3.52702 0.141479 0.00112915 3.66765 0.00112915 8.00113C0.00112915 12.3352 3.52702 15.8608 7.86078 15.8608C7.8857 15.8608 7.91038 15.859 7.93499 15.8572C7.95611 15.8557 7.97719 15.8541 7.99832 15.8538C8.0103 15.8542 8.02216 15.8557 8.03401 15.8572C8.04771 15.859 8.06139 15.8608 8.07523 15.8608C8.14549 15.8608 8.21467 15.8519 8.28378 15.8431L8.31513 15.8391L8.33741 15.8364C12.4491 15.5882 15.7204 12.1743 15.7204 8.00113C15.7204 3.82794 12.4491 0.414322 8.33741 0.165901ZM5.50794 1.54385C4.71187 2.46287 4.06513 3.78245 3.71004 5.34091C2.60576 5.22105 1.93938 5.08154 1.67075 5.01698C2.45113 3.40555 3.82695 2.16027 5.50794 1.54385ZM1.29882 5.93242C1.09251 6.58533 0.980225 7.28035 0.980225 8.00119C0.981387 8.84803 1.13996 9.68726 1.44787 10.4761C1.76254 10.4001 2.46373 10.2544 3.60198 10.1309C3.48128 9.45466 3.41026 8.74309 3.41026 8.00119C3.41087 7.43451 3.45092 6.86856 3.53012 6.30744C2.20324 6.16007 1.48633 5.98294 1.29882 5.93242ZM1.87565 11.3834C2.23158 11.3076 2.86934 11.1928 3.81193 11.0942C4.18274 12.4663 4.78597 13.6259 5.5085 14.459C3.97127 13.8966 2.68365 12.8066 1.87509 11.3834H1.87565ZM4.70764 11.0103C5.21599 12.9791 6.45613 14.4396 7.29824 14.7922V10.9073C6.45613 10.9174 5.43859 10.9561 4.70764 11.0103ZM7.29826 9.92877C6.45616 9.93944 5.31005 9.98267 4.52858 10.0433C4.42107 9.39488 4.39047 8.70884 4.39047 8.00119C4.39047 7.45102 4.40114 6.91544 4.46767 6.39811C5.26121 6.46098 6.45616 6.50618 7.29826 6.5174V9.92849V9.92877ZM4.60239 5.42803C5.35523 5.48557 6.45614 5.52824 7.29825 5.53863V5.53835V1.21049C6.45614 1.58887 5.07256 3.23996 4.60239 5.42803ZM14.0256 4.96308C13.872 5.01023 13.25 5.18371 12.0197 5.32939C11.7421 3.8529 11.241 2.5948 10.5875 1.68645C12.0856 2.33571 13.3039 3.50455 14.0256 4.9628V4.96308ZM11.1121 5.42655C10.6509 3.21125 9.26316 1.54528 8.42105 1.19581V5.53883C9.26316 5.52844 10.3714 5.48549 11.1121 5.42655ZM8.42105 6.51731C9.26316 6.50637 10.4435 6.46005 11.2272 6.39493C11.2918 6.9131 11.3081 7.44952 11.3081 8.0011C11.3081 8.70959 11.2828 9.39675 11.1784 10.046C10.4067 9.9837 9.26316 9.93879 8.42105 9.92868V6.51731ZM8.42105 10.9073V14.8068V14.807C9.26316 14.4809 10.51 13.0077 11.0097 11.0125C10.2883 10.9569 9.26316 10.9174 8.42105 10.9073ZM10.5875 14.3164C11.1764 13.4978 11.6455 12.3992 11.9349 11.1088C12.9028 11.2202 13.5124 11.3499 13.8198 11.4274C13.0797 12.7118 11.9466 13.7245 10.5875 14.3164ZM12.1679 6.29669C12.3156 7.57567 12.2957 8.86846 12.1089 10.1423L12.1092 10.142C13.3039 10.2824 13.9834 10.4514 14.2538 10.5302C14.5653 9.74652 14.7422 8.89459 14.7422 8.00112C14.7418 7.11796 14.5702 6.24325 14.2369 5.4254L14.395 5.87171C14.3506 5.88743 13.6808 6.11508 12.1679 6.29669Z" fill="white"/>
</g>
</svg>
